<?xml version="1.0" encoding="utf-8"?>
<!-- Generator: Adobe Illustrator 19.0.0, SVG Export Plug-In . SVG Version: 6.00 Build 0)  -->
<svg version="1.1" id="Layer_1" xmlns="http://www.w3.org/2000/svg" xmlns:xlink="http://www.w3.org/1999/xlink" x="0px" y="0px"
	 viewBox="0 0 66.5 57.3" enable-background="new 0 0 66.5 57.3" xml:space="preserve">
<g>
	<path fill="#2058A7" d="M66.5,0v8.7h-3V5.3L28.2,40.5l-7.6-7.8l-12.3,12c1,1.3,2.2,2.5,3.4,3.6c5.1,4.4,11.5,6.5,18.2,6
		c10.9-0.8,20.2-8.9,22.5-19.5l2.9,0.6c-2.7,12.1-12.8,20.9-25.2,21.9c-0.7,0.1-1.4,0.1-2.2,0.1c-6.7,0-13.1-2.4-18.2-6.8
		c-5.7-4.9-9.1-11.7-9.7-19.1C-1.1,16,10.5,2.5,25.9,1.4c8.4-0.6,16.5,2.5,22.3,8.5L46.1,12c-5.2-5.4-12.5-8.2-20-7.6
		C12.4,5.4,2,17.4,3.1,31.2c0.3,4,1.5,7.7,3.5,11l14-13.8l7.6,7.8L61.6,3h-3.8V0H66.5z"/>
	<g>
		<path fill="#1AB259" d="M20.8,16.5L3.4,33.8c0.2,1.2,0.5,2.3,0.8,3.4l16.5-16.4l11.5,11.4l2.1-2.1L20.8,16.5z"/>
		<polygon fill="#1AB259" points="56.3,18.5 60,18.5 41.4,37 36.6,32.1 34.4,34.2 41.5,41.2 62,20.8 62,24.2 65,24.2 65,15.5 
			56.3,15.5 		"/>
	</g>
</g>
</svg>
